<svg width="24" height="24" viewBox="0 0 24 24" fill="none" xmlns="http://www.w3.org/2000/svg">
<rect x="4" y="6" width="16" height="12" fill="white"/>
<path fill-rule="evenodd" clip-rule="evenodd" d="M22.75 7.25C22.75 3.93629 20.0637 1.25 16.75 1.25L7.25 1.25C3.93629 1.25 1.25 3.93629 1.25 7.25L1.25 16.75C1.25 20.0637 3.93629 22.75 7.25 22.75L16.75 22.75C20.0637 22.75 22.75 20.0637 22.75 16.75L22.75 7.25ZM19.3117 12.5303C19.4524 12.3897 19.5314 12.1989 19.5314 12C19.5314 11.8011 19.4524 11.6103 19.3117 11.4697L14.3117 6.46967C14.0188 6.17678 13.544 6.17678 13.2511 6.46967C12.9582 6.76256 12.9582 7.23744 13.2511 7.53033L16.9707 11.25L5.20998 11.25C4.79576 11.25 4.45998 11.5858 4.45998 12C4.45998 12.4142 4.79576 12.75 5.20998 12.75L16.9707 12.75L13.2511 16.4697C12.9582 16.7626 12.9582 17.2374 13.2511 17.5303C13.544 17.8232 14.0188 17.8232 14.3117 17.5303L19.3117 12.5303Z" fill="#FFD203"/>
</svg>
