<svg width="55" height="44" viewBox="0 0 55 44" fill="none" xmlns="http://www.w3.org/2000/svg">
<path d="M47.3802 20.6842C47.988 16.6058 47.1609 12.4428 45.0403 8.90645C42.9197 5.37006 39.6371 2.67961 35.7532 1.29465C29.2846 -1.0136 22.3567 0.652396 17.642 5.02584C14.2254 4.20744 10.6269 4.68049 7.5379 6.35409C4.44892 8.02769 2.08736 10.7838 0.907004 14.0928C-1.73671 21.5014 2.1357 29.6709 9.54433 32.3146L38.6417 42.6977C44.8193 44.9021 51.6221 41.6775 53.8265 35.4999C55.9351 29.5909 53.0559 23.1637 47.3802 20.6842ZM40.2391 38.2212L11.1417 27.8381C6.19519 26.0729 3.61839 20.6368 5.38352 15.6902C7.14866 10.7437 12.5848 8.16685 17.5314 9.93198L19.1205 10.4991C22.4428 5.85583 28.5153 3.75844 34.1557 5.77117C40.9601 8.19923 44.5014 15.6702 42.0733 22.4745L41.6739 23.5936L45.0313 24.7917C48.7468 26.1175 50.6759 30.187 49.35 33.9025C48.0242 37.6181 43.9546 39.5471 40.2391 38.2212Z" fill="white" fill-opacity="0.07"/>
</svg>
