<svg width="53" height="60" viewBox="0 0 53 60" fill="none" xmlns="http://www.w3.org/2000/svg">
<path d="M40.2056 18.1794C39.301 18.6321 38.2497 18.6992 37.2832 18.366C36.3166 18.0328 35.5138 17.3266 35.0515 16.4027C34.5891 15.4788 34.505 14.4129 34.8177 13.4395C35.1305 12.4661 35.8143 11.6649 36.7189 11.2122C37.6235 10.7595 38.6747 10.6924 39.6413 11.0256C40.6079 11.3588 41.4107 12.065 41.873 12.9889C42.3354 13.9128 42.4195 14.9787 42.1067 15.9521C41.794 16.9255 41.1102 17.7267 40.2056 18.1794ZM46.186 12.0378C46.0656 11.6998 45.9354 11.3666 45.7711 11.0382C45.6067 10.7097 45.4131 10.3959 45.2048 10.077L46.4491 7.42565C46.5595 7.18369 46.4738 6.89058 46.2473 6.73013L42.5748 4.2617C42.3483 4.10125 42.0404 4.14335 41.8708 4.34022L39.9424 6.54985C39.2414 6.41527 38.5458 6.34021 37.8073 6.39862L36.1268 3.94148C36.0484 3.83416 35.9354 3.75779 35.8079 3.7259C35.6804 3.69402 35.5467 3.70868 35.4304 3.76729L31.5323 5.71801C31.2887 5.83993 31.1737 6.1215 31.2543 6.37988L32.2136 9.1979C31.7242 9.75397 31.3673 10.3557 31.0548 10.9975L28.1302 11.2165C27.871 11.2342 27.6527 11.4555 27.6453 11.733L27.4197 16.1521C27.4026 16.4345 27.5956 16.6739 27.8554 16.7306L30.7235 17.3239C30.8539 17.6819 30.989 18.0249 31.1534 18.3534C31.3178 18.6818 31.5064 18.9857 31.7048 19.2847L30.4754 21.9659C30.3649 22.2079 30.441 22.5059 30.6772 22.6615L34.3496 25.1299C34.5762 25.2903 34.8791 25.2383 35.0537 25.0514L36.9771 22.8318C37.6831 22.9763 38.3787 23.0514 39.1172 22.993L40.7977 25.4501C40.9562 25.6695 41.2505 25.7462 41.4941 25.6243L45.3922 23.6736C45.6358 23.5517 45.7508 23.2701 45.6702 23.0117L44.7109 20.1937C45.1953 19.6277 45.5572 19.0359 45.8647 18.3841L48.7943 18.1751C49.0485 18.1474 49.2718 17.9361 49.2791 17.6586L49.5048 13.2395C49.5121 12.962 49.3289 12.7176 49.0691 12.661L46.186 12.0378Z" fill="white"/>
<path d="M17.0039 48.625C15.3816 48.625 13.8257 47.9797 12.6785 46.831C11.5314 45.6824 10.8869 44.1245 10.8869 42.5C10.8869 40.8756 11.5314 39.3176 12.6785 38.169C13.8257 37.0203 15.3816 36.375 17.0039 36.375C18.6262 36.375 20.182 37.0203 21.3292 38.169C22.4763 39.3176 23.1208 40.8756 23.1208 42.5C23.1208 44.1245 22.4763 45.6824 21.3292 46.831C20.182 47.9797 18.6262 48.625 17.0039 48.625ZM29.9892 44.1975C30.0591 43.6375 30.1115 43.0775 30.1115 42.5C30.1115 41.9225 30.0591 41.345 29.9892 40.75L33.6768 37.8975C34.0089 37.635 34.0963 37.1625 33.8865 36.7775L30.3912 30.7225C30.1814 30.3375 29.7096 30.18 29.3251 30.3375L24.9733 32.0875C24.0645 31.405 23.1208 30.81 22.0197 30.3725L21.3731 25.735C21.3376 25.5289 21.2304 25.342 21.0704 25.2075C20.9105 25.0729 20.7081 24.9994 20.4992 25H13.5085C13.0716 25 12.7045 25.315 12.6346 25.735L11.988 30.3725C10.8869 30.81 9.94319 31.405 9.03439 32.0875L4.68264 30.3375C4.29815 30.18 3.82627 30.3375 3.61655 30.7225L0.12117 36.7775C-0.10603 37.1625 -0.00116799 37.635 0.330893 37.8975L4.01852 40.75C3.94861 41.345 3.89618 41.9225 3.89618 42.5C3.89618 43.0775 3.94861 43.6375 4.01852 44.1975L0.330893 47.1025C-0.00116799 47.365 -0.10603 47.8375 0.12117 48.2225L3.61655 54.2775C3.82627 54.6625 4.29815 54.8025 4.68264 54.6625L9.03439 52.895C9.94319 53.595 10.8869 54.19 11.988 54.6275L12.6346 59.265C12.7045 59.685 13.0716 60 13.5085 60H20.4992C20.9362 60 21.3032 59.685 21.3731 59.265L22.0197 54.6275C23.1208 54.1725 24.0645 53.595 24.9733 52.895L29.3251 54.6625C29.7096 54.8025 30.1814 54.6625 30.3912 54.2775L33.8865 48.2225C34.0963 47.8375 34.0089 47.365 33.6768 47.1025L29.9892 44.1975Z" fill="white"/>
</svg>
