<svg width="45" height="45" viewBox="0 0 45 45" fill="none" xmlns="http://www.w3.org/2000/svg">
<path d="M34.7727 36.8182H10.2273C9.64773 36.8182 9.16159 36.6218 8.76886 36.2291C8.3775 35.8377 8.18182 35.3523 8.18182 34.7727V29.9659C8.18182 29.2841 8.32704 28.6534 8.6175 28.0739C8.90659 27.4943 9.32386 27.017 9.86932 26.642C11.608 25.3466 13.6111 24.332 15.8789 23.5984C18.1452 22.8661 20.3523 22.5 22.5 22.5C24.6477 22.5 26.8555 22.8661 29.1232 23.5984C31.3895 24.332 33.392 25.3466 35.1307 26.642C35.6761 27.017 36.0941 27.4943 36.3845 28.0739C36.6736 28.6534 36.8182 29.2841 36.8182 29.9659V34.7727C36.8182 35.3523 36.6218 35.8377 36.2291 36.2291C35.8377 36.6218 35.3523 36.8182 34.7727 36.8182ZM22.5 20.4545C20.25 20.4545 18.3239 19.6534 16.7216 18.0511C15.1193 16.4489 14.3182 14.5227 14.3182 12.2727C14.3182 10.0227 15.1193 8.09659 16.7216 6.49432C18.3239 4.89205 20.25 4.09091 22.5 4.09091C24.75 4.09091 26.6761 4.89205 28.2784 6.49432C29.8807 8.09659 30.6818 10.0227 30.6818 12.2727C30.6818 14.5227 29.8807 16.4489 28.2784 18.0511C26.6761 19.6534 24.75 20.4545 22.5 20.4545ZM8.18182 4.09091H4.09091V8.18182C4.09091 8.76136 3.89523 9.2475 3.50386 9.64023C3.11114 10.0316 2.625 10.2273 2.04545 10.2273C1.46591 10.2273 0.980455 10.0316 0.589091 9.64023C0.196364 9.2475 0 8.76136 0 8.18182V4.09091C0 2.96591 0.400909 2.0025 1.20273 1.20068C2.00318 0.400227 2.96591 0 4.09091 0H8.18182C8.76136 0 9.2475 0.195682 9.64023 0.587045C10.0316 0.979773 10.2273 1.46591 10.2273 2.04545C10.2273 2.625 10.0316 3.11045 9.64023 3.50182C9.2475 3.89455 8.76136 4.09091 8.18182 4.09091ZM4.09091 45C2.96591 45 2.00318 44.5998 1.20273 43.7993C0.400909 42.9975 0 42.0341 0 40.9091V36.8182C0 36.2386 0.196364 35.7532 0.589091 35.3618C0.980455 34.9691 1.46591 34.7727 2.04545 34.7727C2.625 34.7727 3.11114 34.9691 3.50386 35.3618C3.89523 35.7532 4.09091 36.2386 4.09091 36.8182V40.9091H8.18182C8.76136 40.9091 9.2475 41.1055 9.64023 41.4982C10.0316 41.8895 10.2273 42.375 10.2273 42.9545C10.2273 43.5341 10.0316 44.0195 9.64023 44.4109C9.2475 44.8036 8.76136 45 8.18182 45H4.09091ZM40.9091 45H36.8182C36.2386 45 35.7532 44.8036 35.3618 44.4109C34.9691 44.0195 34.7727 43.5341 34.7727 42.9545C34.7727 42.375 34.9691 41.8895 35.3618 41.4982C35.7532 41.1055 36.2386 40.9091 36.8182 40.9091H40.9091V36.8182C40.9091 36.2386 41.1055 35.7532 41.4982 35.3618C41.8895 34.9691 42.375 34.7727 42.9545 34.7727C43.5341 34.7727 44.0195 34.9691 44.4109 35.3618C44.8036 35.7532 45 36.2386 45 36.8182V40.9091C45 42.0341 44.5998 42.9975 43.7993 43.7993C42.9975 44.5998 42.0341 45 40.9091 45ZM36.8182 4.09091C36.2386 4.09091 35.7532 3.89455 35.3618 3.50182C34.9691 3.11045 34.7727 2.625 34.7727 2.04545C34.7727 1.46591 34.9691 0.979773 35.3618 0.587045C35.7532 0.195682 36.2386 0 36.8182 0H40.9091C42.0341 0 42.9975 0.400227 43.7993 1.20068C44.5998 2.0025 45 2.96591 45 4.09091V8.18182C45 8.76136 44.8036 9.2475 44.4109 9.64023C44.0195 10.0316 43.5341 10.2273 42.9545 10.2273C42.375 10.2273 41.8895 10.0316 41.4982 9.64023C41.1055 9.2475 40.9091 8.76136 40.9091 8.18182V4.09091H36.8182Z" fill="white"/>
</svg>
