<svg width="49" height="59" viewBox="0 0 49 59" fill="none" xmlns="http://www.w3.org/2000/svg">
<path d="M41.2173 48.0487V14.3095L29.739 2.35303H6.9999C4.23847 2.35303 1.9999 4.5916 1.9999 7.35303V7.6139V48.2661C1.9999 50.9074 4.14114 53.0487 6.7825 53.0487H36.2173C38.9787 53.0487 41.2173 50.8101 41.2173 48.0487Z" fill="white"/>
<path d="M41.2173 14.3095V48.0487C41.2173 50.8101 38.9787 53.0487 36.2173 53.0487H6.7825C4.14114 53.0487 1.9999 50.9074 1.9999 48.2661V48.2661V7.6139V7.35303C1.9999 4.5916 4.23847 2.35303 6.9999 2.35303H29.739M41.2173 14.3095L29.739 2.35303M41.2173 14.3095H34.739C31.9776 14.3095 29.739 12.071 29.739 9.30955V2.35303" stroke="#22409A" stroke-width="3"/>
<circle cx="34.0434" cy="43.9617" r="13.4565" fill="white" stroke="#22409A" stroke-width="3"/>
<rect x="8.6958" y="13.8313" width="15.3043" height="1.91304" rx="0.956522" fill="#22409A"/>
<rect x="8.6958" y="22.4401" width="24.8696" height="1.91304" rx="0.956522" fill="#22409A"/>
<rect x="8.6958" y="28.1791" width="10.5217" height="1.91304" rx="0.956522" fill="#22409A"/>
<path d="M35.5789 43.5254H34.7895V39.6634H35.0526C35.5407 39.6652 36.0082 39.8692 36.3533 40.231C36.6984 40.5927 36.893 41.0828 36.8947 41.5944C36.8947 41.8139 36.9779 42.0244 37.126 42.1796C37.274 42.3348 37.4748 42.422 37.6842 42.422C37.8936 42.422 38.0944 42.3348 38.2425 42.1796C38.3905 42.0244 38.4737 41.8139 38.4737 41.5944C38.4737 40.6433 38.1133 39.7311 37.4717 39.0586C36.8301 38.386 35.96 38.0082 35.0526 38.0082H34.7895V37.1806C34.7895 36.9611 34.7063 36.7506 34.5582 36.5954C34.4102 36.4402 34.2094 36.353 34 36.353C33.7906 36.353 33.5898 36.4402 33.4418 36.5954C33.2937 36.7506 33.2105 36.9611 33.2105 37.1806V38.0082H32.6842C31.7769 38.0082 30.9067 38.386 30.2652 39.0586C29.6236 39.7311 29.2632 40.6433 29.2632 41.5944C29.2632 42.5455 29.6236 43.4577 30.2652 44.1302C30.9067 44.8028 31.7769 45.1806 32.6842 45.1806H33.2105V49.0427H32.4211C31.933 49.0409 31.4655 48.8368 31.1204 48.4751C30.7753 48.1133 30.5807 47.6232 30.5789 47.1116C30.5789 46.8922 30.4958 46.6817 30.3477 46.5265C30.1997 46.3713 29.9989 46.2841 29.7895 46.2841C29.5801 46.2841 29.3793 46.3713 29.2312 46.5265C29.0832 46.6817 29 46.8922 29 47.1116C29 48.0628 29.3604 48.9749 30.002 49.6475C30.6436 50.32 31.5137 50.6979 32.4211 50.6979H33.2105V51.5254C33.2105 51.7449 33.2937 51.9554 33.4418 52.1106C33.5898 52.2658 33.7906 52.353 34 52.353C34.2094 52.353 34.4102 52.2658 34.5582 52.1106C34.7063 51.9554 34.7895 51.7449 34.7895 51.5254V50.6979H35.5789C36.4863 50.6979 37.3564 50.32 37.998 49.6475C38.6396 48.9749 39 48.0628 39 47.1116C39 46.1605 38.6396 45.2484 37.998 44.5758C37.3564 43.9033 36.4863 43.5254 35.5789 43.5254ZM32.6842 43.5254C32.1957 43.5254 31.7271 43.322 31.3816 42.9599C31.0362 42.5977 30.8421 42.1065 30.8421 41.5944C30.8421 41.0823 31.0362 40.5911 31.3816 40.229C31.7271 39.8668 32.1957 39.6634 32.6842 39.6634H33.2105V43.5254H32.6842ZM35.5789 49.0427H34.7895V45.1806H35.5789C36.0675 45.1806 36.5361 45.3841 36.8815 45.7462C37.227 46.1083 37.4211 46.5995 37.4211 47.1116C37.4211 47.6238 37.227 48.115 36.8815 48.4771C36.5361 48.8392 36.0675 49.0427 35.5789 49.0427Z" fill="#22409A"/>
</svg>
