<svg width="45" height="45" viewBox="0 0 45 45" fill="none" xmlns="http://www.w3.org/2000/svg">
<path d="M14.5556 22.5V12ZM30.2222 22.5V17.25ZM22.3889 22.5V19.875ZM1.5 1.5V27.75C1.5 29.1424 2.0502 30.4777 3.02955 31.4623C4.00891 32.4469 5.3372 33 6.72222 33H38.0556C39.4406 33 40.7689 32.4469 41.7482 31.4623C42.7276 30.4777 43.2778 29.1424 43.2778 27.75V1.5M22.3889 33V43.5ZM14.5556 43.5H30.2222Z" fill="white"/>
<path fill-rule="evenodd" clip-rule="evenodd" d="M0 1.5C0 0.671573 0.671573 0 1.5 0H43.2778C44.1062 0 44.7778 0.671573 44.7778 1.5V27.75C44.7778 29.5377 44.0715 31.2537 42.8117 32.5201C41.5517 33.7869 39.841 34.5 38.0556 34.5H23.8889V42H30.2222C31.0506 42 31.7222 42.6716 31.7222 43.5C31.7222 44.3284 31.0506 45 30.2222 45L24.6458 43.9322C23.1547 43.6466 21.623 43.6466 20.132 43.9322L14.5556 45C13.7271 45 13.0556 44.3284 13.0556 43.5C13.0556 42.6716 13.7271 42 14.5556 42H20.8889V34.5H6.72222C4.9368 34.5 3.22612 33.7869 1.96608 32.5201C0.70631 31.2537 0 29.5377 0 27.75V1.5ZM38.0556 31.5C39.0402 31.5 39.9861 31.1069 40.6848 30.4045C41.3837 29.7018 41.7778 28.7471 41.7778 27.75V3H3V27.75C3 28.7471 3.39408 29.7018 4.09302 30.4045C4.7917 31.1069 5.7376 31.5 6.72222 31.5H38.0556ZM14.5556 10.5C15.384 10.5 16.0556 11.1716 16.0556 12V22.5C16.0556 23.3284 15.384 24 14.5556 24C13.7271 24 13.0556 23.3284 13.0556 22.5V12C13.0556 11.1716 13.7271 10.5 14.5556 10.5ZM30.2222 15.75C31.0506 15.75 31.7222 16.4216 31.7222 17.25V22.5C31.7222 23.3284 31.0506 24 30.2222 24C29.3938 24 28.7222 23.3284 28.7222 22.5V17.25C28.7222 16.4216 29.3938 15.75 30.2222 15.75ZM22.3889 18.375C23.2173 18.375 23.8889 19.0466 23.8889 19.875V22.5C23.8889 23.3284 23.2173 24 22.3889 24C21.5605 24 20.8889 23.3284 20.8889 22.5V19.875C20.8889 19.0466 21.5605 18.375 22.3889 18.375Z" fill="white"/>
<rect x="12.8889" y="10.5" width="3" height="14" rx="1.5" fill="#22409A"/>
<rect x="20.8889" y="16.5" width="3" height="8" rx="1.5" fill="#22409A"/>
<rect x="28.8889" y="14.5" width="3" height="10" rx="1.5" fill="#22409A"/>
</svg>
