<svg width="43" height="47" viewBox="0 0 43 47" fill="none" xmlns="http://www.w3.org/2000/svg">
<path d="M3 0C1.34314 0 0 1.34315 0 3V45.0455C0 46.1249 0.87508 47 1.95455 47C3.03401 47 3.90909 46.1249 3.90909 45.0455V34.3333C3.90909 32.6765 5.25224 31.3333 6.90909 31.3333H40C41.6569 31.3333 43 29.9902 43 28.3333V3C43 1.34315 41.6569 0 40 0H3ZM3.90909 6.85132C3.90909 5.23212 5.22171 3.91667 6.84091 3.91667C8.46011 3.91667 9.77273 5.22929 9.77273 6.84848V9.79167H15.6364V6.84848C15.6364 5.22929 16.949 3.91667 18.5682 3.91667C20.1874 3.91667 21.5 5.22929 21.5 6.84848V9.79167H27.3636V6.84848C27.3636 5.22929 28.6763 3.91667 30.2955 3.91667C31.9147 3.91667 33.2273 5.22929 33.2273 6.84848V9.79167H36.1534C37.7757 9.79167 39.0909 11.1068 39.0909 12.7292C39.0909 14.3515 37.7757 15.6667 36.1534 15.6667H33.2273V21.5417H36.1534C37.7757 21.5417 39.0909 22.8597 39.0909 24.482C39.0909 26.1012 37.7783 27.4167 36.1591 27.4167C34.5399 27.4167 33.2273 26.104 33.2273 24.4848V21.5417H27.3636V24.4848C27.3636 26.104 26.051 27.4167 24.4318 27.4167C22.8126 27.4167 21.5 26.104 21.5 24.4848V21.5417H15.6364V24.4848C15.6364 26.104 14.3237 27.4167 12.7045 27.4167C11.0853 27.4167 9.77273 26.104 9.77273 24.4848V21.5417H6.84659C5.22426 21.5417 3.90909 20.2265 3.90909 18.6042C3.90909 16.9818 5.22425 15.6667 6.84659 15.6667H9.77273V9.79167H6.84659C5.22426 9.79167 3.90909 8.47366 3.90909 6.85132ZM9.77273 15.6667V21.5417H15.6364V15.6667H9.77273ZM15.6364 15.6667H21.5V9.79167H15.6364V15.6667ZM21.5 15.6667V21.5417H27.3636V15.6667H21.5ZM27.3636 15.6667H33.2273V9.79167H27.3636V15.6667Z" fill="white"/>
</svg>
