<svg width="77" height="75" viewBox="0 0 77 75" fill="none" xmlns="http://www.w3.org/2000/svg">
<path fill-rule="evenodd" clip-rule="evenodd" d="M73.457 38.6459L64.779 45.9056C63.1861 47.2382 62.4894 49.3682 62.9846 51.3915L65.7451 62.6707C66.1198 64.103 66.1679 65.6023 65.8853 67.0564C65.5988 68.5311 64.9798 69.9201 64.076 71.1167C63.1722 72.3132 62.0076 73.2855 60.6718 73.9586C59.3359 74.6318 57.8644 74.988 56.3703 74.9998L56.3405 75L56.3107 74.9999C54.4705 74.9915 52.6714 74.4543 51.125 73.4521L38.5032 65.4339L26.9337 72.8019C25.2127 73.8938 23.207 74.4445 21.173 74.3834C19.1391 74.3224 17.1696 73.6524 15.5165 72.4592L15.5011 72.4481L15.4859 72.4369C13.8044 71.2031 12.5309 69.4891 11.8309 67.5178C11.1325 65.5513 11.037 63.4193 11.5565 61.3978C11.5578 61.3929 11.559 61.388 11.5603 61.3831L14.0381 51.5818C14.5483 49.5634 13.8688 47.4292 12.2877 46.0843L3.52592 38.6315C2.02038 37.3619 0.926065 35.669 0.383471 33.7697C-0.159931 31.8675 -0.125089 29.8454 0.483417 27.9634C1.08428 26.0943 2.22832 24.449 3.768 23.24C5.30973 22.0294 7.17722 21.3118 9.12889 21.1802L9.13523 21.1798L20.4532 20.4467C22.5335 20.3119 24.352 18.9878 25.1286 17.0423L29.4586 6.19493C30.1734 4.37712 31.4127 2.81572 33.0171 1.7117C34.6271 0.603892 36.5307 0.00761688 38.4815 7.15255e-05L38.5 0L38.5185 7.15255e-05C40.4693 0.00761688 42.3729 0.603892 43.9829 1.7117C45.5907 2.81805 46.8318 4.38369 47.5459 6.20642C47.5469 6.20883 47.5478 6.21125 47.5488 6.21367L51.7856 16.9624C52.5536 18.9108 54.3657 20.2427 56.4448 20.387L67.8684 21.18C69.8221 21.3071 71.6926 22.0231 73.2359 23.235C74.7788 24.4465 75.9229 26.0973 76.5193 27.972C77.1252 29.8515 77.1591 31.8704 76.6165 33.7697C76.0724 35.6745 74.9733 37.3717 73.4611 38.6425L73.457 38.6459ZM67.5492 26.0081L56.1135 25.2143C52.1862 24.9416 48.7634 22.4258 47.3127 18.7454L43.0709 7.98389C42.7096 7.05971 42.0808 6.26586 41.2659 5.70512C40.451 5.14437 39.4874 4.84256 38.5 4.83874C37.5126 4.84256 36.549 5.14437 35.7341 5.70512C34.9192 6.26586 34.2904 7.05971 33.9291 7.98389L29.5937 18.8449C28.1268 22.5197 24.6919 25.0209 20.7625 25.2754L9.45082 26.0081C8.45997 26.0749 7.51186 26.4392 6.72914 27.0538C5.94641 27.6684 5.36509 28.5051 5.06036 29.4556C4.74744 30.4207 4.72916 31.4579 5.00787 32.4336C5.28659 33.4092 5.84952 34.2785 6.62409 34.9294L15.3949 42.3899C18.3814 44.9302 19.665 48.9616 18.7012 52.774L16.2169 62.6007C15.9361 63.6871 15.9866 64.8333 16.362 65.8904C16.7374 66.9474 17.4203 67.8665 18.3219 68.5282C19.1971 69.1598 20.2398 69.5145 21.3166 69.5469C22.3934 69.5792 23.4553 69.2877 24.3663 68.7096L38.4445 59.744C38.4611 59.7334 38.4804 59.7278 38.5 59.7278C38.5197 59.7278 38.5389 59.7334 38.5555 59.7439L53.7162 69.3749C54.4952 69.884 55.4034 70.157 56.3325 70.1612C57.091 70.1552 57.8381 69.9744 58.5163 69.6326C59.1945 69.2909 59.7858 68.7973 60.2446 68.1898C60.7035 67.5823 61.0177 66.8771 61.1632 66.1284C61.3087 65.3797 61.2815 64.6074 61.0838 63.8709L58.3126 52.5479C57.3772 48.7261 58.6933 44.7027 61.702 42.1857L70.3759 34.9294C71.1505 34.2785 71.7134 33.4092 71.9921 32.4336C72.2708 31.4579 72.2526 30.4207 71.9396 29.4556C71.6385 28.503 71.0582 27.664 70.2747 27.0488C69.4913 26.4336 68.5412 26.0708 67.5492 26.0081Z" fill="white" fill-opacity="0.04"/>
</svg>
