<svg width="83" height="83" viewBox="0 0 83 83" fill="none" xmlns="http://www.w3.org/2000/svg">
<path d="M55.6647 22.8935C51.9672 20.158 47.5416 18.5803 42.9474 18.3601C38.3533 18.1398 33.7971 19.2868 29.8548 21.656C25.9126 24.0252 22.7614 27.5102 20.7998 31.6704C18.8382 35.8305 18.1543 40.4788 18.8345 45.0277C19.5147 49.5765 21.5286 53.8214 24.6214 57.2257C27.7141 60.63 31.747 63.0407 36.2098 64.1531C40.6727 65.2654 45.3652 65.0293 49.6939 63.4747C54.0226 61.9201 57.7931 59.1168 60.5286 55.4193C64.1884 50.4581 65.7316 44.2482 64.8198 38.151C63.908 32.0538 60.6157 26.567 55.6647 22.8935ZM32.6131 54.0516C30.1481 52.2279 28.2792 49.7143 27.2429 46.8285C26.2065 43.9427 26.0491 40.8143 26.7906 37.8391C27.5322 34.8638 29.1393 32.1753 31.4088 30.1134C33.6784 28.0516 36.5083 26.709 39.5409 26.2555C42.5734 25.802 45.6723 26.258 48.4457 27.5657C51.2192 28.8735 53.5425 30.9742 55.122 33.6024C56.7015 36.2306 57.4661 39.2681 57.3193 42.3308C57.1724 45.3936 56.1207 48.344 54.297 50.809C51.8515 54.1145 48.1931 56.3131 44.1266 56.9212C40.0601 57.5293 35.9186 56.4971 32.6131 54.0516ZM57.9276 13.3181L61.0011 9.16367C61.6125 8.3373 62.5271 7.78765 63.5437 7.63562C64.5604 7.48359 65.5957 7.74165 66.4221 8.35301C67.2485 8.96438 67.7981 9.87898 67.9502 10.8956C68.1022 11.9122 67.8441 12.9476 67.2328 13.774L64.1592 17.9284C63.5479 18.7548 62.6333 19.3044 61.6166 19.4565C60.6 19.6085 59.5646 19.3504 58.7382 18.7391C57.9119 18.1277 57.3622 17.2131 57.2102 16.1965C57.0582 15.1798 57.3162 14.1445 57.9276 13.3181ZM69.9325 37.3865C69.8561 36.8821 69.8801 36.3676 70.0031 35.8725C70.126 35.3775 70.3454 34.9115 70.6488 34.5014C70.9522 34.0913 71.3336 33.7452 71.7711 33.4828C72.2085 33.2204 72.6935 33.047 73.1981 32.9724L78.3028 32.209C79.3212 32.0567 80.3584 32.3152 81.1862 32.9277C82.014 33.5401 82.5646 34.4563 82.7169 35.4747C82.8692 36.4931 82.6107 37.5302 81.9983 38.358C81.3858 39.1858 80.4697 39.7365 79.4513 39.8887L74.3465 40.6521C73.8425 40.7266 73.3288 40.701 72.8348 40.5767C72.3407 40.4525 71.876 40.2321 71.4671 39.9281C70.6438 39.3134 70.0931 38.4014 69.9325 37.3865ZM75.0691 66.1767C74.4577 67.0031 73.5431 67.5527 72.5265 67.7048C71.5099 67.8568 70.4745 67.5987 69.6481 66.9874L65.4937 63.9138C64.6673 63.3025 64.1177 62.3879 63.9656 61.3712C63.8136 60.3546 64.0717 59.3192 64.683 58.4929C65.2944 57.6665 66.209 57.1168 67.2256 56.9648C68.2423 56.8128 69.2776 57.0708 70.104 57.6822L74.2584 60.7557C75.0848 61.3671 75.6344 62.2817 75.7865 63.2983C75.9385 64.315 75.6805 65.3504 75.0691 66.1767ZM51.2131 78.0575C51.2894 78.5618 51.2654 79.0763 51.1425 79.5714C51.0195 80.0665 50.8001 80.5324 50.4967 80.9425C50.1933 81.3526 49.8119 81.6987 49.3745 81.9611C48.937 82.2235 48.4521 82.397 47.9474 82.4715C47.4435 82.5534 46.9281 82.5314 46.433 82.4069C45.9378 82.2824 45.4733 82.058 45.0681 81.7475C44.6578 81.4455 44.311 81.0656 44.0477 80.6295C43.7844 80.1934 43.6096 79.7096 43.5334 79.2059L42.77 74.1011C42.6177 73.0827 42.8762 72.0456 43.4886 71.2178C44.1011 70.39 45.0172 69.8394 46.0356 69.6871C47.054 69.5348 48.0912 69.7933 48.919 70.4057C49.7468 71.0181 50.2974 71.9343 50.4497 72.9527L51.2131 78.0575ZM25.7399 69.8586L22.6664 74.013C22.055 74.8394 21.1404 75.3891 20.1238 75.5411C19.1071 75.6931 18.0717 75.4351 17.2454 74.8237C16.419 74.2123 15.8694 73.2977 15.7173 72.2811C15.5653 71.2645 15.8234 70.2291 16.4347 69.4027L19.5083 65.2483C20.1196 64.4219 21.0342 63.8723 22.0509 63.7203C23.0675 63.5682 24.1029 63.8263 24.9292 64.4377C25.7556 65.049 26.3053 65.9636 26.4573 66.9802C26.6093 67.9969 26.3513 69.0323 25.7399 69.8586ZM13.735 45.7902C13.8114 46.2946 13.7874 46.8091 13.6644 47.3042C13.5415 47.7993 13.322 48.2652 13.0186 48.6753C12.7153 49.0854 12.3339 49.4315 11.8964 49.6939C11.459 49.9563 10.974 50.1297 10.4694 50.2043L5.36465 50.9677C4.86067 51.0422 4.34695 51.0165 3.85288 50.8923C3.35881 50.7681 2.89408 50.5476 2.48527 50.2436C2.06979 49.9469 1.71933 49.5684 1.45542 49.1313C1.19151 48.6943 1.01971 48.2079 0.950576 47.702C0.874257 47.1977 0.898252 46.6832 1.02119 46.1881C1.14412 45.693 1.36357 45.2271 1.66697 44.817C1.97036 44.4069 2.35172 44.0608 2.78917 43.7984C3.22663 43.536 3.71158 43.3625 4.21622 43.288L9.32097 42.5246C9.82534 42.4483 10.3398 42.4723 10.8349 42.5952C11.33 42.7181 11.7959 42.9376 12.206 43.241C12.6161 43.5444 12.9622 43.9257 13.2246 44.3632C13.487 44.8007 13.6605 45.2856 13.735 45.7902ZM13.5635 25.4945L9.40906 22.421C8.58269 21.8096 8.03304 20.895 7.88101 19.8784C7.72898 18.8617 7.98703 17.8264 8.5984 17C9.20977 16.1736 10.1244 15.624 11.141 15.4719C12.1576 15.3199 13.193 15.578 14.0194 16.1893L18.1738 19.2629C19.0002 19.8742 19.5498 20.7888 19.7018 21.8055C19.8539 22.8221 19.5958 23.8575 18.9844 24.6839C18.3731 25.5102 17.4585 26.0599 16.4419 26.2119C15.4252 26.3639 14.3898 26.1059 13.5635 25.4945ZM32.4544 5.11926C32.3021 4.10086 32.5606 3.06368 33.1731 2.23589C33.7855 1.40809 34.7017 0.857478 35.7201 0.705188C36.7385 0.552897 37.7756 0.811398 38.6034 1.42383C39.4312 2.03625 39.9818 2.95244 40.1341 3.97083L40.8975 9.07558C40.9738 9.57995 40.9498 10.0944 40.8269 10.5895C40.7039 11.0846 40.4845 11.5505 40.1811 11.9606C39.8777 12.3707 39.4964 12.7169 39.0589 12.9792C38.6214 13.2416 38.1365 13.4151 37.6319 13.4896C36.6144 13.633 35.5812 13.3731 34.7525 12.7656C34.3422 12.4636 33.9955 12.0837 33.7321 11.6476C33.4688 11.2115 33.294 10.7277 33.2178 10.224L32.4544 5.11926Z" fill="white" fill-opacity="0.05"/>
</svg>
