<svg width="49" height="59" viewBox="0 0 49 59" fill="none" xmlns="http://www.w3.org/2000/svg">
<path d="M41.2174 47.6957V13.9565L29.7391 2H7C4.23858 2 2 4.23858 2 7V7.26087V47.913C2 50.5544 4.14125 52.6957 6.78261 52.6957H36.2174C38.9788 52.6957 41.2174 50.4571 41.2174 47.6957Z" fill="white"/>
<path d="M41.2174 13.9565V47.6957C41.2174 50.4571 38.9788 52.6957 36.2174 52.6957H6.78261C4.14125 52.6957 2 50.5544 2 47.913V47.913V7.26087V7C2 4.23858 4.23858 2 7 2H29.7391M41.2174 13.9565L29.7391 2M41.2174 13.9565H34.7391C31.9777 13.9565 29.7391 11.7179 29.7391 8.95652V2" stroke="#22409A" stroke-width="3"/>
<circle cx="34.0435" cy="43.6087" r="13.4565" fill="white" stroke="#22409A" stroke-width="3"/>
<path d="M29.7392 45.0739L31.6272 47.0219C32.5353 47.9588 34.0829 47.7894 34.7667 46.6782L39.3044 39.3044" stroke="#22409A" stroke-width="3" stroke-linecap="round"/>
<rect x="8.69568" y="13.4783" width="15.3043" height="1.91304" rx="0.956522" fill="#22409A"/>
<rect x="8.69568" y="22.0871" width="24.8696" height="1.91304" rx="0.956522" fill="#22409A"/>
<rect x="8.69568" y="27.8261" width="10.5217" height="1.91304" rx="0.956522" fill="#22409A"/>
</svg>
