<svg width="220" height="220" viewBox="0 0 220 220" fill="none" xmlns="http://www.w3.org/2000/svg">
<path opacity="0.4" d="M179.506 45.8212C173.566 32.4523 163.877 21.0934 151.612 13.1211C139.348 5.14881 125.034 0.905518 110.407 0.905518C95.7791 0.905518 81.4656 5.14881 69.2009 13.1211C56.9363 21.0934 47.2471 32.4523 41.3078 45.8212C29.2475 51.7274 19.0756 60.8837 11.9375 72.2591C4.79944 83.6345 0.978747 96.7771 0.90573 110.207C0.811333 148.914 32.1513 181.107 70.7598 182.145C80.437 182.36 90.0612 180.659 99.079 177.141V208.579C99.079 211.584 100.272 214.465 102.397 216.59C104.521 218.714 107.402 219.908 110.407 219.908C113.411 219.908 116.292 218.714 118.417 216.59C120.541 214.465 121.734 211.584 121.734 208.579V177.141C130.149 180.468 139.118 182.166 148.166 182.145H150.054C188.662 181.107 220.002 148.914 219.908 110.207C219.835 96.7771 216.014 83.6345 208.876 72.2591C201.738 60.8837 191.566 51.7274 179.506 45.8212ZM149.487 159.487C139.668 159.759 129.995 157.061 121.734 151.746L121.734 117.382L160.815 97.8395C163.343 96.403 165.222 94.0492 166.063 91.2655C166.903 88.4819 166.642 85.4814 165.332 82.8854C164.022 80.2894 161.764 78.2965 159.025 77.3194C156.287 76.3423 153.277 76.4558 150.62 77.6364L121.734 92.0807V72.6328C121.734 69.6282 120.541 66.7467 118.417 64.6221C116.292 62.4975 113.411 61.304 110.407 61.304C107.402 61.304 104.521 62.4975 102.397 64.6221C100.272 66.7467 99.079 69.6282 99.079 72.6328V114.738L70.1934 100.294C67.5362 99.1135 64.5268 99 61.7883 99.9771C59.0497 100.954 56.7917 102.947 55.4817 105.543C54.1717 108.139 53.91 111.14 54.7508 113.923C55.5916 116.707 57.4704 119.061 59.9985 120.497L99.079 140.039V151.746C93.4095 155.44 87.0375 157.922 80.3632 159.036C73.6889 160.15 66.8564 159.871 60.2948 158.218C53.7331 156.566 47.5841 153.574 42.2336 149.431C36.8832 145.288 32.447 140.084 29.2036 134.144C25.9602 128.205 23.9797 121.66 23.3863 114.918C22.793 108.177 23.5997 101.386 25.7557 94.9714C27.9118 88.5569 31.3706 82.6574 35.9151 77.6435C40.4596 72.6295 45.9915 68.6094 52.1635 65.8355C56.4502 63.8439 59.8231 60.3019 61.6032 55.9228C65.6484 46.3192 72.4364 38.1225 81.1175 32.359C89.7986 26.5954 99.9869 23.5212 110.407 23.5212C120.826 23.5212 131.015 26.5954 139.696 32.359C148.377 38.1225 155.165 46.3192 159.21 55.9228C160.99 60.3019 164.363 63.8439 168.65 65.8355C178.703 70.4722 186.895 78.3716 191.893 88.2512C196.891 98.1307 198.404 109.41 196.184 120.257C193.965 131.105 188.144 140.883 179.666 148.005C171.189 155.127 160.554 159.173 149.487 159.487Z" fill="white" fill-opacity="0.06"/>
</svg>
