<svg width="1356" height="611" viewBox="0 0 1356 611" fill="none" xmlns="http://www.w3.org/2000/svg">
<path d="M68 557.999C118.5 629.5 356 655.999 339 415.499C314.915 74.7645 474 168 576 102" stroke="#533EA5" stroke-opacity="0.2" stroke-width="6" stroke-dasharray="12 12"/>
<path d="M56.9994 128.5C25.9991 145 -53.2818 176.168 80.0001 342.5C203 496 -100.5 439.5 42.0001 510.5" stroke="#533EA5" stroke-opacity="0.2" stroke-width="6" stroke-dasharray="12 12"/>
<path d="M1157 58C1241.5 67 1447.97 126.683 1302 282C1200.5 390 1010 234.5 1041.5 471" stroke="#533EA5" stroke-opacity="0.2" stroke-width="6" stroke-dasharray="12 12"/>
<path d="M634.5 101C891 46.9996 907 432.499 611 384.999C452 359.484 481.5 465 547 491.499" stroke="#533EA5" stroke-opacity="0.2" stroke-width="6" stroke-dasharray="12 12"/>
<path d="M556.5 514C716 622.5 973 468.5 912 316C785.139 -1.15359 1100.67 41.1666 1103.5 73.9999" stroke="#533EA5" stroke-opacity="0.2" stroke-width="6" stroke-dasharray="12 12"/>
<path d="M1223.93 387.306C1222.3 383.643 1219.65 380.531 1216.29 378.347C1212.93 376.163 1209.01 375 1205 375C1200.99 375 1197.07 376.163 1193.71 378.347C1190.35 380.531 1187.7 383.643 1186.07 387.306C1182.76 388.924 1179.98 391.432 1178.02 394.549C1176.07 397.665 1175.02 401.266 1175 404.945C1174.97 415.55 1183.56 424.37 1194.14 424.654C1196.79 424.713 1199.43 424.247 1201.9 423.283V431.896C1201.9 432.719 1202.22 433.509 1202.81 434.091C1203.39 434.673 1204.18 435 1205 435C1205.82 435 1206.61 434.673 1207.19 434.091C1207.78 433.509 1208.1 432.719 1208.1 431.896V423.283C1210.41 424.195 1212.87 424.66 1215.34 424.654H1215.86C1226.44 424.37 1235.03 415.55 1235 404.945C1234.98 401.266 1233.93 397.665 1231.98 394.549C1230.02 391.432 1227.24 388.924 1223.93 387.306ZM1215.71 418.447C1213.02 418.521 1210.37 417.782 1208.1 416.326V406.911L1218.81 401.557C1219.5 401.163 1220.02 400.519 1220.25 399.756C1220.48 398.993 1220.41 398.171 1220.05 397.46C1219.69 396.749 1219.07 396.203 1218.32 395.935C1217.57 395.667 1216.75 395.698 1216.02 396.022L1208.1 399.979V394.651C1208.1 393.828 1207.78 393.038 1207.19 392.456C1206.61 391.874 1205.82 391.547 1205 391.547C1204.18 391.547 1203.39 391.874 1202.81 392.456C1202.22 393.038 1201.9 393.828 1201.9 394.651V406.187L1193.98 402.229C1193.25 401.906 1192.43 401.875 1191.68 402.143C1190.93 402.41 1190.31 402.956 1189.95 403.668C1189.59 404.379 1189.52 405.201 1189.75 405.963C1189.98 406.726 1190.5 407.371 1191.19 407.764L1201.9 413.118V416.326C1200.34 417.338 1198.6 418.018 1196.77 418.323C1194.94 418.628 1193.07 418.552 1191.27 418.099C1189.47 417.646 1187.79 416.826 1186.32 415.691C1184.86 414.556 1183.64 413.131 1182.75 411.503C1181.86 409.876 1181.32 408.083 1181.16 406.236C1181 404.389 1181.22 402.529 1181.81 400.771C1182.4 399.014 1183.35 397.398 1184.59 396.024C1185.84 394.65 1187.35 393.549 1189.04 392.789C1190.22 392.243 1191.14 391.273 1191.63 390.073C1192.74 387.442 1194.6 385.196 1196.98 383.617C1199.35 382.038 1202.15 381.196 1205 381.196C1207.85 381.196 1210.65 382.038 1213.02 383.617C1215.4 385.196 1217.26 387.442 1218.37 390.073C1218.86 391.273 1219.78 392.243 1220.96 392.789C1223.71 394.059 1225.96 396.223 1227.32 398.93C1228.69 401.637 1229.11 404.727 1228.5 407.699C1227.89 410.671 1226.3 413.35 1223.98 415.301C1221.65 417.252 1218.74 418.361 1215.71 418.447Z" fill="#DDD8ED"/>
<path d="M1268.99 429.794C1267.96 427.474 1266.28 425.503 1264.15 424.12C1262.02 422.736 1259.54 422 1257 422C1254.46 422 1251.98 422.736 1249.85 424.12C1247.72 425.503 1246.04 427.474 1245.01 429.794C1242.92 430.818 1241.15 432.407 1239.91 434.381C1238.68 436.355 1238.01 438.635 1238 440.965C1237.98 447.682 1243.42 453.267 1250.12 453.448C1251.8 453.485 1253.47 453.19 1255.03 452.579V458.034C1255.03 458.556 1255.24 459.056 1255.61 459.424C1255.98 459.793 1256.48 460 1257 460C1257.52 460 1258.02 459.793 1258.39 459.424C1258.76 459.056 1258.97 458.556 1258.97 458.034V452.579C1260.43 453.157 1261.98 453.451 1263.55 453.448H1263.88C1270.58 453.267 1276.02 447.682 1276 440.965C1275.99 438.635 1275.32 436.355 1274.09 434.381C1272.85 432.407 1271.08 430.818 1268.99 429.794ZM1263.78 449.516C1262.08 449.563 1260.4 449.095 1258.97 448.173V442.21L1265.75 438.819C1266.19 438.57 1266.51 438.162 1266.66 437.679C1266.8 437.196 1266.76 436.675 1266.53 436.225C1266.3 435.774 1265.91 435.428 1265.44 435.259C1264.96 435.089 1264.44 435.109 1263.98 435.314L1258.97 437.82V434.446C1258.97 433.924 1258.76 433.424 1258.39 433.056C1258.02 432.687 1257.52 432.48 1257 432.48C1256.48 432.48 1255.98 432.687 1255.61 433.056C1255.24 433.424 1255.03 433.924 1255.03 434.446V441.752L1250.02 439.245C1249.56 439.04 1249.04 439.021 1248.56 439.19C1248.09 439.36 1247.7 439.706 1247.47 440.156C1247.24 440.607 1247.2 441.127 1247.34 441.61C1247.49 442.093 1247.81 442.502 1248.25 442.751L1255.03 446.142V448.173C1254.05 448.814 1252.95 449.245 1251.79 449.438C1250.63 449.631 1249.44 449.583 1248.3 449.296C1247.17 449.009 1246.1 448.49 1245.17 447.771C1244.24 447.052 1243.47 446.149 1242.91 445.119C1242.35 444.088 1242 442.953 1241.9 441.783C1241.8 440.613 1241.94 439.435 1242.31 438.322C1242.69 437.209 1243.29 436.185 1244.07 435.315C1244.86 434.445 1245.82 433.748 1246.89 433.266C1247.64 432.921 1248.22 432.306 1248.53 431.546C1249.23 429.88 1250.41 428.458 1251.92 427.458C1253.42 426.458 1255.19 425.924 1257 425.924C1258.81 425.924 1260.58 426.458 1262.08 427.458C1263.59 428.458 1264.77 429.88 1265.47 431.546C1265.78 432.306 1266.36 432.921 1267.11 433.266C1268.85 434.071 1270.27 435.441 1271.14 437.156C1272.01 438.87 1272.27 440.827 1271.88 442.709C1271.5 444.591 1270.49 446.288 1269.02 447.524C1267.55 448.76 1265.7 449.462 1263.78 449.516Z" fill="#DDD8ED"/>
<path d="M21.2119 37.6287C21.6028 37.6287 21.9427 37.7731 22.2316 38.062C22.5205 38.351 22.665 38.6909 22.665 39.0817V54.7852C22.665 55.1761 22.5205 55.516 22.2316 55.8049C21.9427 56.0938 21.6028 56.2383 21.2119 56.2383H18.7646C18.3737 56.2383 18.0338 56.0938 17.7449 55.8049C17.456 55.516 17.3115 55.1761 17.3115 54.7852V43.237H17.286L13.6661 45.7353C13.4111 45.9053 13.1477 45.9223 12.8758 45.7863C12.6039 45.6334 12.4679 45.4039 12.4679 45.098V42.3958C12.4679 41.4271 12.8673 40.6708 13.6661 40.1269L16.1134 38.4444C16.8951 37.9006 17.7789 37.6287 18.7646 37.6287H21.2119Z" fill="white"/>
<path d="M534.37 54.2765C535.764 54.2765 536.894 54.7438 537.761 55.6785C538.645 56.5963 539.087 57.8284 539.087 59.375C539.087 61.3634 538.475 62.8845 537.251 63.9382C536.027 64.9749 534.26 65.4932 531.949 65.4932C530.487 65.4932 529.008 65.3233 527.513 64.9834C527.088 64.8984 526.74 64.6859 526.468 64.346C526.213 63.9891 526.085 63.5898 526.085 63.1479V61.7203C526.085 61.3634 526.23 61.0915 526.519 60.9045C526.808 60.7006 527.122 60.6496 527.462 60.7516C528.957 61.2274 530.283 61.4654 531.439 61.4654C532.305 61.4654 532.968 61.2954 533.427 60.9555C533.886 60.5986 534.115 60.1143 534.115 59.5024C534.115 58.7886 533.835 58.2958 533.274 58.0239C532.73 57.7519 531.626 57.6075 529.96 57.5905C529.569 57.5905 529.229 57.446 528.94 57.1571C528.652 56.8682 528.507 56.5283 528.507 56.1374V55.7295C528.507 54.7608 528.881 53.9705 529.629 53.3587L532.815 50.784C532.832 50.767 532.841 50.75 532.841 50.733C532.841 50.716 532.832 50.7075 532.815 50.7075H527.411C527.02 50.7075 526.68 50.563 526.391 50.2741C526.102 49.9852 525.958 49.6453 525.958 49.2544V48.0817C525.958 47.6909 526.102 47.351 526.391 47.062C526.68 46.7731 527.02 46.6287 527.411 46.6287H537.379C537.769 46.6287 538.109 46.7731 538.398 47.062C538.687 47.351 538.832 47.6909 538.832 48.0817V49.2544C538.832 50.2401 538.449 51.0134 537.684 51.5742L534.141 54.2C534.124 54.217 534.115 54.234 534.115 54.251C534.115 54.268 534.124 54.2765 534.141 54.2765H534.37Z" fill="white"/>
<path d="M1067.35 44.0018C1069.31 44.0018 1070.81 44.5117 1071.86 45.5314C1072.93 46.5511 1073.47 47.9957 1073.47 49.8651C1073.47 52.0745 1072.8 53.7315 1071.45 54.8362C1070.11 55.9409 1068.06 56.4932 1065.31 56.4932C1064.21 56.4932 1063.02 56.3827 1061.74 56.1618C1061.33 56.0938 1060.99 55.8899 1060.72 55.55C1060.47 55.2101 1060.34 54.8277 1060.34 54.4028V53.1027C1060.34 52.7458 1060.48 52.4569 1060.77 52.2359C1061.06 51.998 1061.39 51.9215 1061.74 52.0065C1063.07 52.3124 1064.17 52.4654 1065.06 52.4654C1067.35 52.4654 1068.5 51.5986 1068.5 49.8651C1068.5 48.5055 1067.78 47.8257 1066.33 47.8257C1066.16 47.8257 1065.96 47.8597 1065.72 47.9277C1065.55 47.9787 1065.28 48.0806 1064.9 48.2336C1064.55 48.3866 1064.22 48.5055 1063.93 48.5905C1063.65 48.6755 1063.37 48.718 1063.09 48.718H1061.67C1061.27 48.718 1060.94 48.5735 1060.67 48.2846C1060.4 47.9957 1060.27 47.6558 1060.29 47.2649L1060.65 39.0817C1060.66 38.6739 1060.82 38.334 1061.1 38.062C1061.41 37.7731 1061.77 37.6287 1062.18 37.6287H1071.12C1071.51 37.6287 1071.85 37.7731 1072.14 38.062C1072.43 38.351 1072.58 38.6909 1072.58 39.0817V40.2544C1072.58 40.6453 1072.43 40.9852 1072.14 41.2741C1071.85 41.563 1071.51 41.7075 1071.12 41.7075H1065.54C1065.39 41.7075 1065.31 41.7755 1065.31 41.9114L1065.18 44.3587C1065.18 44.3757 1065.19 44.3842 1065.21 44.3842H1065.26C1066.01 44.1293 1066.7 44.0018 1067.35 44.0018Z" fill="white"/>
<path d="M1055.35 478.002C1057.31 478.002 1058.81 478.512 1059.86 479.531C1060.93 480.551 1061.47 481.996 1061.47 483.865C1061.47 486.074 1060.8 487.732 1059.45 488.836C1058.11 489.941 1056.06 490.493 1053.31 490.493C1052.21 490.493 1051.02 490.383 1049.74 490.162C1049.33 490.094 1048.99 489.89 1048.72 489.55C1048.47 489.21 1048.34 488.828 1048.34 488.403V487.103C1048.34 486.746 1048.48 486.457 1048.77 486.236C1049.06 485.998 1049.39 485.922 1049.74 486.007C1051.07 486.312 1052.17 486.465 1053.06 486.465C1055.35 486.465 1056.5 485.599 1056.5 483.865C1056.5 482.506 1055.78 481.826 1054.33 481.826C1054.16 481.826 1053.96 481.86 1053.72 481.928C1053.55 481.979 1053.28 482.081 1052.9 482.234C1052.55 482.387 1052.22 482.506 1051.93 482.59C1051.65 482.675 1051.37 482.718 1051.09 482.718H1049.67C1049.27 482.718 1048.94 482.574 1048.67 482.285C1048.4 481.996 1048.27 481.656 1048.29 481.265L1048.65 473.082C1048.66 472.674 1048.82 472.334 1049.1 472.062C1049.41 471.773 1049.77 471.629 1050.18 471.629H1059.12C1059.51 471.629 1059.85 471.773 1060.14 472.062C1060.43 472.351 1060.58 472.691 1060.58 473.082V474.254C1060.58 474.645 1060.43 474.985 1060.14 475.274C1059.85 475.563 1059.51 475.707 1059.12 475.707H1053.54C1053.39 475.707 1053.31 475.775 1053.31 475.911L1053.18 478.359C1053.18 478.376 1053.19 478.384 1053.21 478.384H1053.26C1054.01 478.129 1054.7 478.002 1055.35 478.002Z" fill="white"/>
<path d="M17.8552 479.345C18.2461 479.345 18.586 479.49 18.8749 479.779C19.1638 480.068 19.3082 480.408 19.3082 480.799V481.971C19.3082 482.362 19.1638 482.702 18.8749 482.991C18.586 483.28 18.2461 483.424 17.8552 483.424H7.50516C7.11428 483.424 6.77437 483.28 6.48546 482.991C6.19654 482.702 6.05208 482.362 6.05208 481.971V480.799C6.05208 479.847 6.43447 479.074 7.19925 478.479C10.0034 476.337 11.8304 474.757 12.6802 473.737C13.5299 472.7 13.9548 471.681 13.9548 470.678C13.9548 469.403 13.2325 468.766 11.7879 468.766C10.7682 468.766 9.4426 469.055 7.81107 469.633C7.47117 469.752 7.15676 469.718 6.86785 469.531C6.57893 469.327 6.43447 469.055 6.43447 468.715V467.033C6.43447 466.591 6.56194 466.2 6.81686 465.86C7.07179 465.503 7.40319 465.274 7.81107 465.172C9.47659 464.764 11.0571 464.56 12.5527 464.56C14.6771 464.56 16.3086 465.061 17.4473 466.064C18.6029 467.05 19.1808 468.418 19.1808 470.168C19.1808 471.562 18.7389 472.887 17.8552 474.145C16.9884 475.403 15.2719 477.111 12.7057 479.269C12.6887 479.286 12.6802 479.303 12.6802 479.32C12.6802 479.337 12.6887 479.345 12.7057 479.345H17.8552Z" fill="white"/>
<path d="M544.553 467.929V462.703C544.553 462.687 544.544 462.678 544.527 462.678C544.493 462.678 544.476 462.687 544.476 462.703L540.754 468.082L540.729 468.108V468.133C540.729 468.15 540.737 468.159 540.754 468.159H544.323C544.476 468.159 544.553 468.082 544.553 467.929ZM550.492 468.159C550.883 468.159 551.223 468.303 551.512 468.592C551.801 468.881 551.946 469.221 551.946 469.612V470.657C551.946 471.048 551.801 471.388 551.512 471.677C551.223 471.966 550.883 472.11 550.492 472.11H549.6C549.464 472.11 549.396 472.187 549.396 472.34V473.971C549.396 474.362 549.252 474.702 548.963 474.991C548.674 475.28 548.334 475.424 547.943 475.424H546.006C545.615 475.424 545.275 475.28 544.986 474.991C544.697 474.702 544.553 474.362 544.553 473.971V472.34C544.553 472.187 544.476 472.11 544.323 472.11H537.848C537.457 472.11 537.117 471.966 536.828 471.677C536.54 471.388 536.395 471.048 536.395 470.657V469.612C536.395 468.66 536.675 467.785 537.236 466.986L543.711 457.987C544.272 457.206 545.037 456.815 546.006 456.815H547.943C548.334 456.815 548.674 456.959 548.963 457.248C549.252 457.537 549.396 457.877 549.396 458.268V467.929C549.396 468.082 549.464 468.159 549.6 468.159H550.492Z" fill="white"/>
<path d="M1093 529C1091.34 529 1090 530.343 1090 532V574.045C1090 575.125 1090.88 576 1091.95 576V576C1093.03 576 1093.91 575.125 1093.91 574.045V563.333C1093.91 561.676 1095.25 560.333 1096.91 560.333H1130C1131.66 560.333 1133 558.99 1133 557.333V532C1133 530.343 1131.66 529 1130 529H1093ZM1093.91 535.851C1093.91 534.232 1095.22 532.917 1096.84 532.917V532.917C1098.46 532.917 1099.77 534.229 1099.77 535.848V538.792H1105.64V535.848C1105.64 534.229 1106.95 532.917 1108.57 532.917V532.917C1110.19 532.917 1111.5 534.229 1111.5 535.848V538.792H1117.36V535.848C1117.36 534.229 1118.68 532.917 1120.3 532.917V532.917C1121.91 532.917 1123.23 534.229 1123.23 535.848V538.792H1126.15C1127.78 538.792 1129.09 540.107 1129.09 541.729V541.729C1129.09 543.352 1127.78 544.667 1126.15 544.667H1123.23V550.542H1126.15C1127.78 550.542 1129.09 551.86 1129.09 553.482V553.482C1129.09 555.101 1127.78 556.417 1126.16 556.417V556.417C1124.54 556.417 1123.23 555.104 1123.23 553.485V550.542H1117.36V553.485C1117.36 555.104 1116.05 556.417 1114.43 556.417V556.417C1112.81 556.417 1111.5 555.104 1111.5 553.485V550.542H1105.64V553.485C1105.64 555.104 1104.32 556.417 1102.7 556.417V556.417C1101.09 556.417 1099.77 555.104 1099.77 553.485V550.542H1096.85C1095.22 550.542 1093.91 549.227 1093.91 547.604V547.604C1093.91 545.982 1095.22 544.667 1096.85 544.667H1099.77V538.792H1096.85C1095.22 538.792 1093.91 537.474 1093.91 535.851V535.851ZM1099.77 544.667V550.542H1105.64V544.667H1099.77ZM1105.64 544.667H1111.5V538.792H1105.64V544.667ZM1111.5 544.667V550.542H1117.36V544.667H1111.5ZM1117.36 544.667H1123.23V538.792H1117.36V544.667Z" fill="white"/>
<path d="M1117 130.985C1115.38 130.985 1113.83 130.339 1112.68 129.191C1111.53 128.042 1110.89 126.484 1110.89 124.86C1110.89 123.235 1111.53 121.677 1112.68 120.529C1113.83 119.38 1115.38 118.735 1117 118.735C1118.63 118.735 1120.18 119.38 1121.33 120.529C1122.48 121.677 1123.12 123.235 1123.12 124.86C1123.12 126.484 1122.48 128.042 1121.33 129.191C1120.18 130.339 1118.63 130.985 1117 130.985ZM1129.99 126.557C1130.06 125.997 1130.11 125.437 1130.11 124.86C1130.11 124.282 1130.06 123.705 1129.99 123.11L1133.68 120.257C1134.01 119.995 1134.1 119.522 1133.89 119.137L1130.39 113.082C1130.18 112.697 1129.71 112.54 1129.33 112.697L1124.97 114.447C1124.06 113.765 1123.12 113.17 1122.02 112.732L1121.37 108.095C1121.34 107.889 1121.23 107.702 1121.07 107.567C1120.91 107.433 1120.71 107.359 1120.5 107.36H1113.51C1113.07 107.36 1112.7 107.675 1112.63 108.095L1111.99 112.732C1110.89 113.17 1109.94 113.765 1109.03 114.447L1104.68 112.697C1104.3 112.54 1103.83 112.697 1103.62 113.082L1100.12 119.137C1099.89 119.522 1100 119.995 1100.33 120.257L1104.02 123.11C1103.95 123.705 1103.9 124.282 1103.9 124.86C1103.9 125.437 1103.95 125.997 1104.02 126.557L1100.33 129.462C1100 129.725 1099.89 130.197 1100.12 130.582L1103.62 136.637C1103.83 137.022 1104.3 137.162 1104.68 137.022L1109.03 135.255C1109.94 135.955 1110.89 136.55 1111.99 136.987L1112.63 141.625C1112.7 142.045 1113.07 142.36 1113.51 142.36H1120.5C1120.94 142.36 1121.3 142.045 1121.37 141.625L1122.02 136.987C1123.12 136.532 1124.06 135.955 1124.97 135.255L1129.33 137.022C1129.71 137.162 1130.18 137.022 1130.39 136.637L1133.89 130.582C1134.1 130.197 1134.01 129.725 1133.68 129.462L1129.99 126.557Z" fill="white"/>
<path d="M1135.29 101.179C1134.38 101.632 1133.33 101.699 1132.36 101.366C1131.4 101.033 1130.59 100.327 1130.13 99.4028C1129.67 98.4789 1129.58 97.413 1129.9 96.4396C1130.21 95.4662 1130.89 94.665 1131.8 94.2123C1132.7 93.7596 1133.75 93.6925 1134.72 94.0257C1135.69 94.3589 1136.49 95.0651 1136.95 95.989C1137.42 96.9129 1137.5 97.9788 1137.19 98.9522C1136.87 99.9256 1136.19 100.727 1135.29 101.179ZM1141.27 95.0379C1141.15 94.6999 1141.02 94.3668 1140.85 94.0383C1140.69 93.7098 1140.49 93.396 1140.28 93.0771L1141.53 90.4258C1141.64 90.1838 1141.55 89.8907 1141.33 89.7302L1137.65 87.2618C1137.43 87.1014 1137.12 87.1435 1136.95 87.3403L1135.02 89.55C1134.32 89.4154 1133.63 89.3403 1132.89 89.3987L1131.21 86.9416C1131.13 86.8343 1131.02 86.7579 1130.89 86.726C1130.76 86.6941 1130.63 86.7088 1130.51 86.7674L1126.61 88.7181C1126.37 88.84 1126.25 89.1216 1126.33 89.38L1127.29 92.198C1126.8 92.7541 1126.45 93.3558 1126.13 93.9976L1123.21 94.2166C1122.95 94.2343 1122.73 94.4556 1122.73 94.7331L1122.5 99.1522C1122.48 99.4346 1122.68 99.674 1122.94 99.7307L1125.8 100.324C1125.93 100.682 1126.07 101.025 1126.23 101.353C1126.4 101.682 1126.59 101.986 1126.78 102.285L1125.56 104.966C1125.44 105.208 1125.52 105.506 1125.76 105.662L1129.43 108.13C1129.66 108.29 1129.96 108.238 1130.13 108.051L1132.06 105.832C1132.76 105.976 1133.46 106.051 1134.2 105.993L1135.88 108.45C1136.04 108.67 1136.33 108.746 1136.57 108.624L1140.47 106.674C1140.72 106.552 1140.83 106.27 1140.75 106.012L1139.79 103.194C1140.28 102.628 1140.64 102.036 1140.94 101.384L1143.87 101.175C1144.13 101.148 1144.35 100.936 1144.36 100.659L1144.58 96.2396C1144.59 95.9621 1144.41 95.7178 1144.15 95.6611L1141.27 95.0379Z" fill="white"/>
<path d="M84.7727 132.818H60.2273C59.6477 132.818 59.1616 132.622 58.7689 132.229C58.3775 131.838 58.1818 131.352 58.1818 130.773V125.966C58.1818 125.284 58.327 124.653 58.6175 124.074C58.9066 123.494 59.3239 123.017 59.8693 122.642C61.608 121.347 63.6111 120.332 65.8789 119.598C68.1452 118.866 70.3523 118.5 72.5 118.5C74.6477 118.5 76.8555 118.866 79.1232 119.598C81.3895 120.332 83.392 121.347 85.1307 122.642C85.6761 123.017 86.0941 123.494 86.3845 124.074C86.6736 124.653 86.8182 125.284 86.8182 125.966V130.773C86.8182 131.352 86.6218 131.838 86.2291 132.229C85.8377 132.622 85.3523 132.818 84.7727 132.818ZM72.5 116.455C70.25 116.455 68.3239 115.653 66.7216 114.051C65.1193 112.449 64.3182 110.523 64.3182 108.273C64.3182 106.023 65.1193 104.097 66.7216 102.494C68.3239 100.892 70.25 100.091 72.5 100.091C74.75 100.091 76.6761 100.892 78.2784 102.494C79.8807 104.097 80.6818 106.023 80.6818 108.273C80.6818 110.523 79.8807 112.449 78.2784 114.051C76.6761 115.653 74.75 116.455 72.5 116.455ZM58.1818 100.091H54.0909V104.182C54.0909 104.761 53.8952 105.247 53.5039 105.64C53.1111 106.032 52.625 106.227 52.0455 106.227C51.4659 106.227 50.9805 106.032 50.5891 105.64C50.1964 105.247 50 104.761 50 104.182V100.091C50 98.9659 50.4009 98.0025 51.2027 97.2007C52.0032 96.4002 52.9659 96 54.0909 96H58.1818C58.7614 96 59.2475 96.1957 59.6402 96.587C60.0316 96.9798 60.2273 97.4659 60.2273 98.0455C60.2273 98.625 60.0316 99.1105 59.6402 99.5018C59.2475 99.8945 58.7614 100.091 58.1818 100.091ZM54.0909 141C52.9659 141 52.0032 140.6 51.2027 139.799C50.4009 138.997 50 138.034 50 136.909V132.818C50 132.239 50.1964 131.753 50.5891 131.362C50.9805 130.969 51.4659 130.773 52.0455 130.773C52.625 130.773 53.1111 130.969 53.5039 131.362C53.8952 131.753 54.0909 132.239 54.0909 132.818V136.909H58.1818C58.7614 136.909 59.2475 137.105 59.6402 137.498C60.0316 137.89 60.2273 138.375 60.2273 138.955C60.2273 139.534 60.0316 140.02 59.6402 140.411C59.2475 140.804 58.7614 141 58.1818 141H54.0909ZM90.9091 141H86.8182C86.2386 141 85.7532 140.804 85.3618 140.411C84.9691 140.02 84.7727 139.534 84.7727 138.955C84.7727 138.375 84.9691 137.89 85.3618 137.498C85.7532 137.105 86.2386 136.909 86.8182 136.909H90.9091V132.818C90.9091 132.239 91.1055 131.753 91.4982 131.362C91.8895 130.969 92.375 130.773 92.9545 130.773C93.5341 130.773 94.0195 130.969 94.4109 131.362C94.8036 131.753 95 132.239 95 132.818V136.909C95 138.034 94.5998 138.997 93.7993 139.799C92.9975 140.6 92.0341 141 90.9091 141ZM86.8182 100.091C86.2386 100.091 85.7532 99.8945 85.3618 99.5018C84.9691 99.1105 84.7727 98.625 84.7727 98.0455C84.7727 97.4659 84.9691 96.9798 85.3618 96.587C85.7532 96.1957 86.2386 96 86.8182 96H90.9091C92.0341 96 92.9975 96.4002 93.7993 97.2007C94.5998 98.0025 95 98.9659 95 100.091V104.182C95 104.761 94.8036 105.247 94.4109 105.64C94.0195 106.032 93.5341 106.227 92.9545 106.227C92.375 106.227 91.8895 106.032 91.4982 105.64C91.1055 105.247 90.9091 104.761 90.9091 104.182V100.091H86.8182Z" fill="white"/>
<path d="M307.416 466.255C314.12 468.41 313.002 475.234 311.905 478.526C309.81 484.81 303.765 489.359 301.131 493.19C297.839 497.978 305.62 505.46 308.314 509.35C311.007 513.241 305.62 520.723 298.737 520.723C291.854 520.723 287.964 518.328 282.876 508.453C277.788 498.577 276.891 480.022 281.679 471.343C286.467 462.664 299.037 463.562 307.416 466.255Z" fill="#DDD8ED"/>
<ellipse cx="313.275" cy="456.584" rx="6.28467" ry="7.18248" transform="rotate(15.2663 313.275 456.584)" fill="#DDD8ED"/>
<ellipse cx="299.315" cy="456.31" rx="3.99977" ry="4.57117" transform="rotate(-2.16054 299.315 456.31)" fill="#DDD8ED"/>
<ellipse cx="289.513" cy="458.242" rx="3.18815" ry="4.33517" transform="rotate(-10.7968 289.513 458.242)" fill="#DDD8ED"/>
<ellipse cx="281.6" cy="462.499" rx="2.97189" ry="4.04111" transform="rotate(-25.2045 281.6 462.499)" fill="#DDD8ED"/>
<ellipse cx="276.666" cy="469.829" rx="2.29508" ry="3.1208" transform="rotate(-34.8359 276.666 469.829)" fill="#DDD8ED"/>
<path d="M354.971 527.847C349.337 525.465 346.204 530.59 345.06 533.379C342.876 538.704 344.276 545.125 343.838 549.14C343.291 554.158 333.927 554.671 329.949 555.705C325.97 556.739 325.275 564.718 329.806 568.62C334.336 572.522 338.255 573.152 347.202 569.536C356.15 565.919 367.26 554.214 369.028 545.787C370.796 537.36 362.014 530.825 354.971 527.847Z" fill="#DDD8ED"/>
<ellipse cx="5.45962" cy="6.23957" rx="5.45962" ry="6.23957" transform="matrix(-0.902808 -0.430043 -0.430043 0.902808 364.209 514.874)" fill="#DDD8ED"/>
<ellipse cx="3.47468" cy="3.97106" rx="3.47468" ry="3.97106" transform="matrix(-0.732576 -0.680685 -0.680685 0.732576 371.19 525.349)" fill="#DDD8ED"/>
<ellipse cx="2.76961" cy="3.76605" rx="2.76961" ry="3.76605" transform="matrix(-0.622057 -0.782972 -0.782972 0.622057 375.969 532.548)" fill="#DDD8ED"/>
<ellipse cx="2.58174" cy="3.51059" rx="2.58174" ry="3.51059" transform="matrix(-0.407676 -0.913127 -0.913127 0.407676 378.352 540.936)" fill="#DDD8ED"/>
<ellipse cx="1.99378" cy="2.7111" rx="1.99378" ry="2.7111" transform="matrix(-0.249155 -0.968464 -0.968464 0.249155 376.308 548.887)" fill="#DDD8ED"/>
<path d="M894.691 336.432C899.422 336.511 900.033 341.116 899.97 343.447C899.848 347.897 896.847 352.001 895.901 354.978C894.717 358.699 901.18 361.993 903.67 363.969C906.161 365.946 904.155 371.807 899.729 373.149C895.303 374.491 892.334 373.71 887.137 368.352C881.94 362.993 877.745 351.236 879.132 344.722C880.519 338.207 888.777 336.334 894.691 336.432Z" fill="#DDD8ED"/>
<ellipse cx="896.573" cy="329.07" rx="4.22304" ry="4.82633" transform="rotate(-1.60039 896.573 329.07)" fill="#DDD8ED"/>
<ellipse cx="887.542" cy="331.616" rx="2.68768" ry="3.07164" transform="rotate(-19.0273 887.542 331.616)" fill="#DDD8ED"/>
<ellipse cx="881.616" cy="334.77" rx="2.1423" ry="2.91306" transform="rotate(-27.6636 881.616 334.77)" fill="#DDD8ED"/>
<ellipse cx="877.357" cy="339.05" rx="1.99699" ry="2.71546" transform="rotate(-42.0712 877.357 339.05)" fill="#DDD8ED"/>
<ellipse cx="875.614" cy="344.725" rx="1.5422" ry="2.09705" transform="rotate(-51.7026 875.614 344.725)" fill="#DDD8ED"/>
<path d="M933.729 298.098C929.265 299.706 930.177 304.274 930.993 306.465C932.551 310.648 936.728 313.569 938.591 316.087C940.92 319.234 935.856 324.454 934.133 327.136C932.411 329.819 936.213 334.73 940.848 334.569C945.482 334.408 948.046 332.705 951.24 325.936C954.435 319.167 954.605 306.653 951.177 300.921C947.75 295.189 939.308 296.088 933.729 298.098Z" fill="#DDD8ED"/>
<ellipse cx="4.23425" cy="4.83914" rx="4.23425" ry="4.83914" transform="matrix(-0.954978 0.296677 0.296677 0.954978 932.165 285.845)" fill="#DDD8ED"/>
<ellipse cx="2.69481" cy="3.07979" rx="2.69481" ry="3.07979" transform="matrix(-0.999996 -0.00294567 -0.00294567 0.999996 941.654 288.14)" fill="#DDD8ED"/>
<ellipse cx="2.14799" cy="2.92079" rx="2.14799" ry="2.92079" transform="matrix(-0.988215 -0.153073 -0.153073 0.988215 948.165 289.726)" fill="#DDD8ED"/>
<ellipse cx="2.00229" cy="2.72266" rx="2.00229" ry="2.72266" transform="matrix(-0.919048 -0.394145 -0.394145 0.919048 953.937 293.251)" fill="#DDD8ED"/>
<ellipse cx="1.54629" cy="2.10261" rx="1.54629" ry="2.10261" transform="matrix(-0.840149 -0.542355 -0.542355 0.840149 956.957 298.856)" fill="#DDD8ED"/>
<path d="M70 349C70 347.895 70.8954 347 72 347C73.1046 347 74 347.895 74 349V402C74 403.105 73.1046 404 72 404C70.8954 404 70 403.105 70 402V349Z" fill="#DDD8ED"/>
<path d="M127 349C127 347.895 127.895 347 129 347C130.105 347 131 347.895 131 349V402C131 403.105 130.105 404 129 404C127.895 404 127 403.105 127 402V349Z" fill="#DDD8ED"/>
<path d="M72 353L87.0833 351.115C92.9749 350.378 98.9526 350.759 104.703 352.238C110.514 353.732 116.557 354.105 122.509 353.338L129 352.5V369.5L121.665 369.973C116.24 370.323 110.793 370.036 105.436 369.118C99.1747 368.044 92.7963 367.834 86.4782 368.492L72 370V353Z" fill="#DDD8ED"/>
<path d="M1003.25 29.0621L951.5 30.375V22.5L1003.25 23.8129V29.0621Z" fill="#DDD8ED" stroke="white" stroke-width="2" stroke-miterlimit="10" stroke-linecap="round" stroke-linejoin="round"/>
<path d="M969.5 66.375H958.25L960.5 14.625H967.25L969.5 66.375ZM959.375 56.25H968.375ZM959.375 46.125H968.375ZM959.938 38.25H967.812ZM976.25 29.25V23.625ZM985.25 29.25V23.625ZM994.25 41.625V23.625ZM983.562 41.625H1004.94V46.125H983.562V41.625Z" fill="#DDD8ED"/>
<path d="M959.375 56.25H968.375M959.375 46.125H968.375M959.938 38.25H967.812M976.25 29.25V23.625M985.25 29.25V23.625M994.25 41.625V23.625M969.5 66.375H958.25L960.5 14.625H967.25L969.5 66.375ZM983.562 41.625H1004.94V46.125H983.562V41.625Z" stroke="white" stroke-width="2" stroke-miterlimit="10" stroke-linecap="round" stroke-linejoin="round"/>
<path d="M1003.25 29.0621L951.5 30.375V22.5L1003.25 23.8129V29.0621Z" fill="#DDD8ED" stroke="white" stroke-width="2" stroke-miterlimit="10" stroke-linecap="round" stroke-linejoin="round"/>
<rect x="992" y="28" width="3" height="15" fill="#DDD8ED"/>
</svg>
